<svg xmlns="http://www.w3.org/2000/svg" viewBox="0 0 45.13 76.03"><defs><style>.cls-1{fill:#231f20;}</style></defs><title>Asset 4</title><g id="Layer_2" data-name="Layer 2"><g id="Layer_1-2" data-name="Layer 1"><path class="cls-1" d="M20,17.19c2.93-4,5.75-10.42,2.81-15.17C21.13-.68,18.13.18,15.61,1,5.81,4.09,1.09,18.77.18,27.93S1.36,53.59,13.09,54.84c7.36.79,14.58-4.38,18.44-10.07-.42.61-2.46.14-2.9.78-2.74,4-6.12,7.17-10.77,8.79l2.7-.73C8.14,56.75,3.2,42.4,2.89,32.63A42.8,42.8,0,0,1,6.42,14.31C8.7,9.05,12.19,2.57,17.8.41L15,1.18c9.74-2.1,5.11,12.77,2.14,16.8.46-.62,2.42-.14,2.9-.78Z" transform="translate(0 -0.19)"/><path class="cls-1" d="M25.61,28.85c2.18-3.81,4.77-7.08,9.11-8.46l-2.85.76c17-2.76,8.48,27.29,5.14,35.27C32.6,67,19.29,84.37,7.63,70.87c-.3-.34-2.63,1.09-2.9.78C9.33,77,16,77,22.26,75.06c10.61-3.26,16.31-14.48,19.47-24.35,2.29-7.14,8.2-29.94-4.37-30.58-6.44-.33-11.64,4.24-14.65,9.49.34-.6,2.54-.15,2.9-.78Z" transform="translate(0 -0.19)"/></g></g></svg>