<svg xmlns="http://www.w3.org/2000/svg" viewBox="0 0 108.93 138.22"><defs><style>.cls-1{fill:#231f20;}</style></defs><title>Asset 2</title><g id="Layer_2" data-name="Layer 2"><g id="Layer_1-2" data-name="Layer 1"><path class="cls-1" d="M50.42,35.72c-.25-3.78-1.47-6.26-5.27-5.53-3.07.59-4.24,2.45-3.42,5.76.75,3,2.33,4,5.07,3.05,3.45-1.23,4.18-5,5.35-8.38l-2.9.78c-1.31,5.16,3.53,7.9,8,6.87,4.06-.95,6.87-3.18,8-7.41l-2.9.78c-2,10.76,16.34,9.08,13.92-1,0,.12-2.84.54-2.9.78a6.47,6.47,0,0,0,3.76,7.82,8.26,8.26,0,0,0,2.9-.78,7.49,7.49,0,0,0,0-10.66,11.31,11.31,0,0,0-2.9.78c-4.08,3.9-1.09,9.81,4.45,9a10.91,10.91,0,0,0,5.83-2.68c5-4.72,8.22-12.15,10-18.63,1.14-4.17,3.78-14-2.55-15.46a8.53,8.53,0,0,0-2.9.78c-4.5,7.8-3.68,17.27-2.09,25.82.66,3.57,1.85,7.39,5.23,9.25s7.44,1.06,11,.36c.88-.17,2.1-.62,2.79-.76-4.2.82-9.18,1.67-12.63-1.58-2.54-2.4-3.25-6.14-3.76-9.44-1.29-8.25-2-16.95,2.32-24.44L92,1.51C98.78,3,95.35,14.36,94,18.57c-2,6.31-6,16.15-12.51,18.95l2.9-.78c-5.54.82-8.45-5.11-4.4-9l-2.9.78a7.49,7.49,0,0,1,0,10.66l2.9-.78a6.47,6.47,0,0,1-3.76-7.82l-2.9.78a6.34,6.34,0,0,1-4.13,7.71l2.9-.78c-4.47.66-7.72-3.1-6.9-7.45-.08.43-2.77.31-2.9.78-.92,3.36-2.7,5.66-6,6.86l2.9-.78c-4.27.61-8.21-2.58-7.07-7.09-.12.48-2.72.27-2.9.78-.92,2.62-1.79,6.06-3.9,8l2.84-.77c-4,.87-5.37-7.56-1.64-8.78l-2.85.76c3.16.47,3.63,3.08,3.81,5.91,0-.17,2.91-.56,2.9-.78Z" transform="translate(0 -0.22)"/><path class="cls-1" d="M59.51,96.92c-.1-8.29-9.75-4.33-9.73,1.88,0,3.53,3,3.08,5.44,2.42,3.58-1,4.43-3.56,4.85-7.13l-2.9.78c.07,4.42,2,6.89,6.22,5.85,3.73-.92,4.1-4.21,6.6-6.73l-2.9.78c1.3,3.09,2.38,7.5,6.32,6.59,3.37-.77,3.7-3.3,5.91-5.73l-2.9.78c0,5,5.11,5.14,8.67,3.94,2.81-.95,7.92-4.68,7.2-8.14-.44-2.12-2.19-1.7-3.84-1.28a5.56,5.56,0,0,0-3.39,1.81c-2.14,2.59-2.89,8.33,1.8,7.88,4-.39,6-3,6.81-6.93l-2.9.78a134.55,134.55,0,0,1-.33,25.95c-.67,5.9-.93,14.94-7.29,17.7l2.7-.73c-3,.74-5.78.09-7.09-2.83-.07-.17-2.84.9-2.9.78,2.31,5.14,10.69,3.13,13.54-.56,3.62-4.68,3.72-12.39,4.23-18a135.27,135.27,0,0,0,0-23.08c0,.23-2.84.47-2.9.78-.55,2.69-1.17,5.07-3.92,6.16l2.9-.78c-5.68.53-3.37-7.62,0-9.24l-2.9.78c2.83-.28,3,1.71,2,3.93a11.16,11.16,0,0,1-6.41,5.75l2.85-.76c-3.14.24-5.92-1.27-5.9-4.67,0,.23-2.65.5-2.9.78-1.6,1.76-2,3.9-4.08,5.22l2.9-.78C72.17,100.86,71,96.42,70,94a22.63,22.63,0,0,0-2.9.78c-2,2-2.62,5.41-5.49,6.41l2.85-.76c-3.57-.33-4.33-3.12-4.38-6.33,0,.26-2.86.45-2.9.78-.34,2.89-.78,5.7-3.79,6.83l2.9-.78c-5.84.56-3.4-7.44.2-8.9l-2.9.78c2.72.24,3,2.53,3,4.9,0-.23,2.9-.51,2.9-.78Z" transform="translate(0 -0.22)"/><path class="cls-1" d="M28.64,20.53c4.49-9.48-.7-22.72-12.79-19.94C5.48,3,1.08,13.29.15,23.15c-1.06,11.31,3.32,29,16.5,31.55,6.08,1.19,14.26-1.75,16.73-7.59-.23.55-2.65.19-2.9.78A11,11,0,0,1,23,54.4l2.18-.57c-12.56,2.26-20-10.59-21.77-21.25C1.68,22.32,4,3.86,16.21.53L14,1.1C25.73-.52,30,12.3,25.74,21.31c.27-.57,2.61-.18,2.9-.78Z" transform="translate(0 -0.22)"/><path class="cls-1" d="M14.29,85.24l-1.55.94,2.9-.78c.5-7.13,2.08-16.57,9.42-20,7.82-3.61,13.38,5.6,14.7,11.9,1.54,7.36.38,15.39-2.28,22.36-2.59,6.79-7.36,15.18-14.26,18.29l2.84-.77c-5.37,1.23-8.78-2.9-11.6-6.84-.22-.3-2.71,1-2.9.78,3,4.25,6.39,8,12,6.76a12.91,12.91,0,0,0,5.68-2.56c9.65-7.77,14.62-21.84,14-33.94-.45-9.25-5.43-19.6-16.26-16.88C16.57,67.16,13.43,76.31,12.74,86.19c0-.2,2.6-.6,2.9-.78l1.55-.94c-.81.5-2.07.27-2.9.78Z" transform="translate(0 -0.22)"/></g></g></svg>