<svg id="Layer_1" data-name="Layer 1" xmlns="http://www.w3.org/2000/svg" viewBox="0 0 89.9 218.3"><defs><style>.cls-1{fill:#a2344a;stroke-width:3px;}.cls-1,.cls-4{stroke:#a13349;}.cls-1,.cls-2,.cls-4{stroke-miterlimit:10;}.cls-2,.cls-4{fill:none;}.cls-2{stroke:#231f20;stroke-width:0.75px;}.cls-3{fill:#fff;}</style></defs><title>ssred</title><g id="Layer_2" data-name="Layer 2"><g id="Layer_1-2" data-name="Layer 1-2"><path class="cls-1" d="M13.5,1.5H76.4a12,12,0,0,1,12,12V204.8a12,12,0,0,1-12,12H13.5a12,12,0,0,1-12-12V13.5A12,12,0,0,1,13.5,1.5Z"/><path class="cls-2" d="M45.3,86.7"/><path class="cls-3" d="M20.9,28.6a54.77,54.77,0,0,1,.5,9.9c-.1,1.9,2.9,1.9,3,0a64,64,0,0,0-.6-10.7C23.5,25.9,20.6,26.7,20.9,28.6Z"/><path class="cls-3" d="M30.6,21c0,4.9.2,9.8.1,14.6-.2,5.8-2.7,8.5-5.9,13.1-4.7,6.8-2.6,15.1-3.2,22.8-.1,1.9,2.9,1.9,3,0,.3-4.4-.2-8.7.1-13.1.4-5.8,3.9-8.7,6.7-13.2,4.1-6.7,2.3-16.7,2.2-24.1a1.54,1.54,0,0,0-1.5-1.5A1.45,1.45,0,0,0,30.6,21Z"/><path class="cls-3" d="M30.4,54.5c.2,5.6.2,11.2.1,16.8a1.5,1.5,0,0,0,3,0c.1-5.6,0-11.2-.1-16.8C33.3,52.6,30.3,52.6,30.4,54.5Z"/><path class="cls-3" d="M43.1,30a113.34,113.34,0,0,1,21-.2c1.9.1,1.9-2.9,0-3a113.34,113.34,0,0,0-21,.2C41.2,27.2,41.2,30.2,43.1,30Z"/><path class="cls-3" d="M43,44.9l20.5-.4a1.5,1.5,0,0,0,0-3L43,41.9A1.5,1.5,0,0,0,43,44.9Z"/><path class="cls-3" d="M42.7,51.7c4.7-.3,9.3-.6,14-.7,1.7,0,5.1-.7,5.8.6s0,5.8,0,7.2c-.1,2.1-.2,4.2-.5,6.4-.1,1.3.1,2.5-1.1,3.3-.6.4-2.6.1-3.3.1L42.7,69c-1.9.1-1.9,3.1,0,3l11.5-.4c2.4-.1,6.2.5,8.5-.6,3.3-1.7,2.6-8.4,2.7-11.5s1.7-10.1-2-11.5c-2.3-.9-6.8,0-9.2.1-3.8.1-7.7.3-11.5.6-1.9.2-1.9,3.2,0,3Z"/><path class="cls-3" d="M43.1,58.7a174,174,0,0,1,19.1-.5,1.5,1.5,0,0,0,0-3,173.38,173.38,0,0,0-19.1.5C41.2,55.8,41.2,58.8,43.1,58.7Z"/><path class="cls-3" d="M43,65H62a1.5,1.5,0,0,0,0-3H43a1.5,1.5,0,0,0,0,3Z"/><path class="cls-3" d="M52.2,36.2l.1,13.3a1.5,1.5,0,0,0,3,0l-.1-13.3a1.5,1.5,0,0,0-3,0Z"/><path class="cls-3" d="M22,169.2c3.5.2,8.5,1.1,11.7-.6,2.3-1.3,2.5-3.7,2.6-6.1.1-2.6.6-7.1-1.4-9.2-1.7-1.8-4.8-1.3-7.1-1-2.7.3-6,.7-7.3,3.5-1.6,3.3-.9,8.6-1.1,12.2-.4,9.6,0,19.5-.1,29.1a1.5,1.5,0,0,0,3,0c.1-10-.4-20.1.1-30.1.1-2.4-.3-5.6.4-7.9.9-3.2,6.5-5.7,9.4-3.6,2,1.5,1.3,9-.7,10.6-1.6,1.3-7.4.2-9.6.1C20.1,166.1,20.1,169.1,22,169.2Z"/><path class="cls-3" d="M41.2,153.1l27.7-.9c1.9-.1,1.9-3.1,0-3l-27.7.9C39.3,150.2,39.3,153.2,41.2,153.1Z"/><path class="cls-3" d="M53.7,147.7a6.16,6.16,0,0,1,.1,2.7,1.58,1.58,0,0,0,1,1.9,1.43,1.43,0,0,0,1.8-1,12.43,12.43,0,0,0-.1-4.3,1.44,1.44,0,1,0-2.8.7Z"/><path class="cls-3" d="M43.1,198c-.2-5.6-.3-11.2,0-16.7.1-2.4-.4-7.2,1.9-8.6,1.8-1,6.9-.4,8.8-.5a67.72,67.72,0,0,1,7.8-.2c4.8.4,5,3.3,5.1,7.4l.7,17.9c.1,1.9,3.1,1.9,3,0L70,184.1c-.1-3.3.4-7.3-.6-10.5-1.7-5.6-9.1-4.7-13.6-4.5-3.8.2-9.2-.5-12.8.7-1.3.4-1.5.7-1.9,1.9-1.2,3.5-.8,8.6-.9,12.2-.2,4.6-.1,9.3.1,14-.1,2,2.9,2,2.8.1Z"/><path class="cls-3" d="M53.8,171.8c0,1.6,0,3.3-.1,4.9,0,1.9,3,1.8,3-.1v-5.1a1.49,1.49,0,0,0-1.6-1.5A1.59,1.59,0,0,0,53.8,171.8Z"/><path class="cls-3" d="M50.4,197.8V186.7c0-1.4-.4-3.9.2-5.3.9-2.2,2.8-1.7,4.7-1.8,2.3-.1,3.9-.9,5.1,1.9.6,1.3.3,3.7.3,5.2q.3,5.55.3,11.1a1.5,1.5,0,0,0,3,0c0-5.7.3-11.9-.7-17.5-.9-4.4-4.2-3.9-8-3.7-3.4.2-6.6-.5-7.5,3.3-1.3,5.5-.3,12.2-.3,17.8a1.54,1.54,0,0,0,1.5,1.5,1.31,1.31,0,0,0,1.4-1.4Z"/><path class="cls-3" d="M54.2,185.4v12.3a1.5,1.5,0,0,0,3,0V185.4a1.5,1.5,0,0,0-3,0Z"/><path class="cls-3" d="M30.9,87.8c11.8-.4,23.6-.5,35.4-.4a1.5,1.5,0,0,0,0-3c-11.8-.1-23.6,0-35.4.4C28.9,84.9,28.9,87.9,30.9,87.8Z"/><path class="cls-3" d="M25.2,93.4c13.7-.7,27.4-.9,41.1-.7a1.5,1.5,0,0,0,0-3c-13.7-.2-27.4,0-41.1.7C23.3,90.5,23.3,93.5,25.2,93.4Z"/><path class="cls-3" d="M30.2,100q15.75-.9,31.5-.3c1.9.1,1.9-2.9,0-3-10.5-.4-21-.2-31.5.3C28.3,97.1,28.3,100.1,30.2,100Z"/><path class="cls-3" d="M41.8,98.3c-.8,2.2-.7,2.2-3.1,2.8a38.66,38.66,0,0,1-4.8.3l-11.3.8c-1.9.1-1.9,3.1,0,3,5.8-.4,12-.2,17.8-1.2,3.2-.5,3.3-2.1,4.4-4.8C45.4,97.3,42.5,96.6,41.8,98.3Z"/><path class="cls-3" d="M47.2,98.8c.2,3.1.6,5.2,3.9,5.5,5.8.4,11.6.2,17.4.3a1.5,1.5,0,0,0,0-3l-9.8-.2-4.5-.1c-2.3,0-3.8.2-4-2.5-.2-1.9-3.2-1.9-3,0Z"/><path class="cls-3" d="M23.7,85.1a12.81,12.81,0,0,1,4.2,1.7c1.2.9,1.2,2.4,1.2,3.8.1,1.9,3.1,1.9,3,0s-.3-4.1-1.8-5.6a13.07,13.07,0,0,0-5.8-2.8,1.5,1.5,0,0,0-.8,2.9Z"/><path class="cls-3" d="M24,133.4c.1-5.5,0-11.1.2-16.6.1-2.2-.3-2.5,1.9-3.7,1.9-1.1,3.2-1,5.3-1.1l9-.3c1.9-.1,1.9-3.1,0-3-4.5.2-9.5-.2-14,.5a5.7,5.7,0,0,0-4.4,2.6c-1.2,2.1-.8,5.3-.8,7.6l-.2,14a1.54,1.54,0,0,0,1.5,1.5,1.47,1.47,0,0,0,1.5-1.5Z"/><path class="cls-3" d="M69.4,133.5c.1-4.9.1-9.7.2-14.6,0-2.3.9-6.5-.4-8.4-1-1.6-2.4-1.4-4.2-1.5a138.34,138.34,0,0,0-14.4-.1c-1.9.1-1.9,3.1,0,3,3-.1,6-.2,9-.1,3.7.1,6.5-.6,7,3.6.8,5.8-.2,12.3-.3,18.1a1.54,1.54,0,0,0,1.5,1.5,1.63,1.63,0,0,0,1.6-1.5Z"/><path class="cls-3" d="M44.5,36.2c4.1,1.5,9.3.9,13.5.5,2.6-.2,5.7-.3,6.9-3.1,1.3-3,.8-7.6,0-10.6s-2.3-4.2-5.2-4.8a37.23,37.23,0,0,0-12.9.3c-2.6.5-4.3,1.2-5.1,3.7-1.1,3.6-1.1,10.8,2.2,13.5,1.5,1.2,3.6-.9,2.1-2.1-2-1.6-1.9-5.7-1.8-8s.3-3.5,2.7-4.1a29.2,29.2,0,0,1,9.3-.6c2.8.1,5.4.3,6,3.5.4,2.2,1.2,6.6-.6,8.2S56.1,34,53.8,34c-2.7.1-5.9.3-8.5-.7C43.5,32.7,42.7,35.6,44.5,36.2Z"/><path class="cls-3" d="M30.5,123.8c9.7-.3,19.5-.5,29.2-.6a1.5,1.5,0,0,0,0-3c-9.7.1-19.5.3-29.2.6C28.6,120.9,28.6,123.9,30.5,123.8Z"/><path class="cls-3" d="M30.8,129.3c9.8-.4,19.6-.5,29.3-.3a1.5,1.5,0,0,0,0-3q-14.7-.3-29.4.3C28.8,126.4,28.8,129.4,30.8,129.3Z"/><path class="cls-3" d="M23.3,97.8a6.33,6.33,0,0,1,.2-3.6c.4-1,1.5-.9,2.4-.9a1.5,1.5,0,1,0,0-3c-1.9,0-3.8.3-4.9,2.1s-1,4.2-.7,6.2S23.6,99.6,23.3,97.8Z"/><path class="cls-3" d="M66.2,92.7c1.3,0,1.5.6,1.6,1.8s.1,2.1.2,3.2c.1,1.9,3.1,1.9,3,0s.1-3.8-.6-5.5-2.3-2.4-4.2-2.5-1.9,3,0,3Z"/><path class="cls-3" d="M32.3,133.4c5.1,1.7,11.3,1.1,16.5.9,3.5-.1,10,.6,12.6-2.6,2.2-2.7,1.4-7.9.5-11-1.1-3.8-3.4-5.3-7.3-5.9a74,74,0,0,0-16.3-.2c-3.2.2-7.5.1-9.4,3.1-2.7,4.2-1.3,12.8,3,15.4,1.6,1,3.2-1.6,1.5-2.6-3.2-1.9-3.8-9.2-1.1-11.5,3.7-3.1,13.9-1.9,18.5-1.6s8,1.5,8.7,6.4c.7,5.1-3.3,7-7.9,7.2-5.8.3-13,1.1-18.6-.7C31.2,129.9,30.5,132.8,32.3,133.4Z"/><path class="cls-3" d="M25.8,147.2c0,5.8,0,11.6.2,17.3.1,3.1-.7,11.1,2.3,13.3,1,.7,2.4.1,3.3.6,1.5.8,2.2,4.7.6,6-.6.5-2.9.1-4,.9a4.7,4.7,0,0,0-1.7,2c-1,2.2-1.4,7.8-.2,9.9,1.4,2.4,4.7,2,7.1,1.8,1.9-.2,1.9-3.2,0-3-2.5.2-4.5.3-4.4-2.7s-.3-5.7,3.2-6c1.8-.1,2.7-.1,3.3-1.9s.9-6.2,0-8.2c-1.2-2.6-2.4-1.1-4.6-1.8-2.6-.9-1.9-11.4-2-14.1-.1-4.7-.2-9.4-.1-14.2a1.54,1.54,0,0,0-1.5-1.5A1.56,1.56,0,0,0,25.8,147.2Z"/><path class="cls-4" d="M75.2,28.6"/><path class="cls-3" d="M41.9,160.5c.2,2.1-.2,4.5,1.9,5.6,2.4,1.4,7.7.3,10.4.2,4.6-.2,13.1,1.3,14-4.7,1-6.3-4.8-6.1-9.5-6.1s-15.1-1.4-16.7,4.8a1.5,1.5,0,0,0,2.9.8c.8-2.9,9.8-2.5,12-2.5a21.75,21.75,0,0,1,5.1,0c2.3.5,4.9,2,2,3.8-2.3,1.4-8.1.9-10.7,1-1.8.1-3.5.1-5.3.1-1.1,0-2,.2-2.5-.4-.8-.8,0-2-.8-2.7a2.65,2.65,0,0,0-2.6-.1c0,.1.2.2.5.3A2,2,0,0,0,41.9,160.5Z"/></g><path class="cls-3" d="M46.59,151.89"/></g></svg>