<?xml version="1.0" encoding="UTF-8"?>
<svg id="Layer_1" data-name="Layer 1" xmlns="http://www.w3.org/2000/svg" version="1.1" viewBox="0 0 192.8 215.7">
  <defs>
    <style>
      .cls-1 {
        stroke: #231f20;
        stroke-width: .8px;
      }

      .cls-1, .cls-2 {
        fill: none;
        stroke-miterlimit: 10;
      }

      .cls-3 {
        fill: #a2344a;
      }

      .cls-3, .cls-4, .cls-5 {
        stroke-width: 0px;
      }

      .cls-4 {
        fill: #966b20;
      }

      .cls-5 {
        fill: #fff;
      }

      .cls-2 {
        stroke: #a13349;
      }
    </style>
  </defs>
  <g>
    <path class="cls-3" d="M12,0h62.9c6.6,0,12,5.4,12,12v191.3c0,6.6-5.4,12-12,12H12c-6.6,0-12-5.4-12-12V12C0,5.4,5.4,0,12,0Z"/>
    <path class="cls-1" d="M43.8,85.2"/>
    <path class="cls-5" d="M19.4,27.1c.5,3.3.6,6.6.5,9.9-.1,1.9,2.9,1.9,3,0,0-3.6-.1-7.2-.6-10.7-.3-1.9-3.2-1.1-2.9.8Z"/>
    <path class="cls-5" d="M29.1,19.5c0,4.9.2,9.8.1,14.6-.2,5.8-2.7,8.5-5.9,13.1-4.7,6.8-2.6,15.1-3.2,22.8-.1,1.9,2.9,1.9,3,0,.3-4.4-.2-8.7.1-13.1.4-5.8,3.9-8.7,6.7-13.2,4.1-6.7,2.3-16.7,2.2-24.1,0-.8-.7-1.5-1.5-1.5-.8,0-1.5.6-1.5,1.4,0,0,0,0,0,0Z"/>
    <path class="cls-5" d="M28.9,53c.2,5.6.2,11.2.1,16.8,0,.8.7,1.5,1.5,1.5s1.5-.7,1.5-1.5c0-5.6,0-11.2,0-16.8-.1-1.9-3.1-1.9-3,0Z"/>
    <path class="cls-5" d="M41.6,28.5c7-.7,14-.8,21-.2,1.9.1,1.9-2.9,0-3-7-.6-14-.5-21,.2-1.9.2-1.9,3.2,0,3Z"/>
    <path class="cls-5" d="M41.5,43.4l20.5-.4c.8,0,1.5-.7,1.5-1.5s-.7-1.5-1.5-1.5l-20.5.4c-.8,0-1.5.7-1.5,1.5s.7,1.5,1.5,1.5Z"/>
    <path class="cls-5" d="M41.2,50.2c4.7-.3,9.3-.6,14-.7,1.7,0,5.1-.7,5.8.6s0,5.8,0,7.2c0,2.1-.2,4.2-.5,6.4,0,1.3,0,2.5-1.1,3.3s-2.6,0-3.3,0l-14.9.4c-1.9,0-1.9,3.1,0,3l11.5-.4c2.4,0,6.2.5,8.5-.6,3.3-1.7,2.6-8.4,2.7-11.5s1.7-10.1-2-11.5c-2.3-.9-6.8,0-9.2,0-3.8,0-7.7.3-11.5.6-1.9.2-1.9,3.2,0,3Z"/>
    <path class="cls-5" d="M41.6,57.2c6.4-.5,12.7-.7,19.1-.5.8,0,1.5-.7,1.5-1.5s-.7-1.5-1.5-1.5c-6.4-.2-12.7,0-19.1.5-1.9,0-1.9,3.1,0,3Z"/>
    <path class="cls-5" d="M41.5,63.5h19c.8,0,1.5-.7,1.5-1.5s-.7-1.5-1.5-1.5h-19c-.8,0-1.5.7-1.5,1.5s.7,1.5,1.5,1.5Z"/>
    <path class="cls-5" d="M50.7,34.7v13.3c0,.8.8,1.5,1.6,1.5s1.5-.7,1.5-1.5v-13.3c0-.8-.8-1.5-1.6-1.5s-1.5.7-1.5,1.5Z"/>
    <path class="cls-5" d="M20.5,167.7c3.5.2,8.5,1.1,11.7-.6,2.3-1.3,2.5-3.7,2.6-6.1,0-2.6.6-7.1-1.4-9.2-1.7-1.8-4.8-1.3-7.1-1-2.7.3-6,.7-7.3,3.5-1.6,3.3-.9,8.6-1.1,12.2-.4,9.6,0,19.5-.1,29.1,0,.8.7,1.5,1.5,1.5s1.5-.7,1.5-1.5c.1-10-.4-20.1.1-30.1.1-2.4-.3-5.6.4-7.9.9-3.2,6.5-5.7,9.4-3.6,2,1.5,1.3,9-.7,10.6-1.6,1.3-7.4.2-9.6.1-1.8,0-1.8,2.9.1,3Z"/>
    <path class="cls-5" d="M39.7,151.6l27.7-.9c1.9-.1,1.9-3.1,0-3l-27.7.9c-1.9,0-1.9,3.1,0,3Z"/>
    <path class="cls-5" d="M52.2,146.2c.2.9.3,1.8,0,2.7-.2.8.2,1.6,1,1.9.8.2,1.6-.2,1.8-.9,0,0,0,0,0,0,.2-1.4.2-2.9,0-4.3-.2-.8-1-1.2-1.8-1.1-.8.2-1.2,1-1,1.8h0Z"/>
    <path class="cls-5" d="M41.6,196.5c-.2-5.6-.3-11.2,0-16.7,0-2.4-.4-7.2,1.9-8.6,1.8-1,6.9-.4,8.8-.5,2.6-.2,5.2-.3,7.8-.2,4.8.4,5,3.3,5.1,7.4l.7,17.9c0,1.9,3.1,1.9,3,0l-.4-13.2c0-3.3.4-7.3-.6-10.5-1.7-5.6-9.1-4.7-13.6-4.5-3.8.2-9.2-.5-12.8.7-1.3.4-1.5.7-1.9,1.9-1.2,3.5-.8,8.6-.9,12.2-.2,4.6,0,9.3,0,14,0,2,2.9,2,2.8.1Z"/>
    <path class="cls-5" d="M52.3,170.3c0,1.6,0,3.3,0,4.9,0,1.9,3,1.8,3-.1v-5.1c0-.8-.7-1.5-1.5-1.5,0,0,0,0-.1,0-.8.1-1.4.9-1.3,1.8Z"/>
    <path class="cls-5" d="M48.9,196.3v-11.1c0-1.4-.4-3.9.2-5.3.9-2.2,2.8-1.7,4.7-1.8,2.3-.1,3.9-.9,5.1,1.9.6,1.3.3,3.7.3,5.2.2,3.7.3,7.4.3,11.1s.7,1.5,1.5,1.5,1.5-.7,1.5-1.5c0-5.7.3-11.9-.7-17.5-.9-4.4-4.2-3.9-8-3.7-3.4.2-6.6-.5-7.5,3.3-1.3,5.5-.3,12.2-.3,17.8,0,.8.7,1.5,1.5,1.5.7,0,1.3-.5,1.4-1.2,0,0,0-.1,0-.2Z"/>
    <path class="cls-5" d="M52.7,183.9v12.3c0,.8.7,1.5,1.5,1.5s1.5-.7,1.5-1.5v-12.3c0-.8-.7-1.5-1.5-1.5s-1.5.7-1.5,1.5Z"/>
    <path class="cls-5" d="M29.4,86.3c11.8-.4,23.6-.5,35.4-.4.8,0,1.5-.7,1.5-1.5s-.7-1.5-1.5-1.5c-11.8,0-23.6,0-35.4.4-2,0-2,3.1,0,3Z"/>
    <path class="cls-5" d="M23.7,91.9c13.7-.7,27.4-.9,41.1-.7.8,0,1.5-.7,1.5-1.5s-.7-1.5-1.5-1.5c-13.7-.2-27.4,0-41.1.7-1.9,0-1.9,3.1,0,3Z"/>
    <path class="cls-5" d="M28.7,98.5c10.5-.6,21-.7,31.5-.3,1.9,0,1.9-2.9,0-3-10.5-.4-21-.2-31.5.3-1.9,0-1.9,3.1,0,3Z"/>
    <path class="cls-5" d="M40.3,96.8c-.8,2.2-.7,2.2-3.1,2.8-1.6.2-3.2.3-4.8.3l-11.3.8c-1.9,0-1.9,3.1,0,3,5.8-.4,12-.2,17.8-1.2,3.2-.5,3.3-2.1,4.4-4.8.6-1.9-2.3-2.6-3-.9Z"/>
    <path class="cls-5" d="M45.7,97.3c.2,3.1.6,5.2,3.9,5.5,5.8.4,11.6.2,17.4.3.8,0,1.5-.7,1.5-1.5s-.7-1.5-1.5-1.5l-9.8-.2h-4.5c-2.3,0-3.8,0-4-2.6-.2-1.9-3.2-1.9-3,0Z"/>
    <path class="cls-5" d="M22.2,83.6c1.5.3,2.9.9,4.2,1.7,1.2.9,1.2,2.4,1.2,3.8.1,1.9,3.1,1.9,3,0s-.3-4.1-1.8-5.6c-1.7-1.4-3.7-2.4-5.8-2.8-.8-.2-1.6.2-1.9,1.1s.2,1.6,1,1.8Z"/>
    <path class="cls-5" d="M22.5,131.9c.1-5.5,0-11.1.2-16.6.1-2.2-.3-2.5,1.9-3.7,1.9-1.1,3.2-1,5.3-1.1l9-.3c1.9,0,1.9-3.1,0-3-4.5.2-9.5-.2-14,.5-1.8.1-3.4,1.1-4.4,2.6-1.2,2.1-.8,5.3-.8,7.6l-.2,14c0,.8.7,1.5,1.5,1.5.8,0,1.5-.6,1.5-1.4,0,0,0,0,0,0Z"/>
    <path class="cls-5" d="M67.9,132c0-4.9,0-9.7.2-14.6,0-2.3.9-6.5-.4-8.4-1-1.6-2.4-1.4-4.2-1.5-4.8-.3-9.6-.3-14.4,0-1.9,0-1.9,3.1,0,3,3,0,6-.2,9,0,3.7,0,6.5-.6,7,3.6.8,5.8-.2,12.3-.3,18.1,0,.8.7,1.5,1.5,1.5.8,0,1.5-.7,1.6-1.5Z"/>
    <path class="cls-5" d="M43,34.7c4.1,1.5,9.3.9,13.5.5,2.6-.2,5.7-.3,6.9-3.1,1.3-3,.8-7.6,0-10.6s-2.3-4.2-5.2-4.8c-4.3-.7-8.7-.6-12.9.3-2.6.5-4.3,1.2-5.1,3.7-1.1,3.6-1.1,10.8,2.2,13.5,1.5,1.2,3.6-.9,2.1-2.1-2-1.6-1.9-5.7-1.8-8s.3-3.5,2.7-4.1c3-.7,6.2-.9,9.3-.6,2.8.1,5.4.3,6,3.5.4,2.2,1.2,6.6-.6,8.2-1.8,1.6-5.5,1.4-7.8,1.4-2.7,0-5.9.3-8.5-.7-1.8-.6-2.6,2.3-.8,2.9Z"/>
    <path class="cls-5" d="M29,122.3c9.7-.3,19.5-.5,29.2-.6.8,0,1.5-.7,1.5-1.5s-.7-1.5-1.5-1.5c-9.7,0-19.5.3-29.2.6-1.9,0-1.9,3.1,0,3Z"/>
    <path class="cls-5" d="M29.3,127.8c9.8-.4,19.6-.5,29.3-.3.8,0,1.5-.7,1.5-1.5s-.7-1.5-1.5-1.5c-9.8-.2-19.6,0-29.4.3-1.9,0-1.9,3.1.1,3Z"/>
    <path class="cls-5" d="M21.8,96.3c-.3-1.2-.2-2.4.2-3.6.4-1,1.5-.9,2.4-.9s1.5-.7,1.5-1.5-.7-1.5-1.5-1.5c-1.9,0-3.8.3-4.9,2.1s-1,4.2-.7,6.2,3.3,1,3-.8Z"/>
    <path class="cls-5" d="M64.7,91.2c1.3,0,1.5.6,1.6,1.8s0,2.1.2,3.2c0,1.9,3.1,1.9,3,0s0-3.8-.6-5.5-2.3-2.4-4.2-2.5-1.9,3,0,3Z"/>
    <path class="cls-5" d="M30.8,131.9c5.1,1.7,11.3,1.1,16.5.9,3.5-.1,10,.6,12.6-2.6,2.2-2.7,1.4-7.9.5-11-1.1-3.8-3.4-5.3-7.3-5.9-5.4-.7-10.9-.7-16.3-.2-3.2.2-7.5,0-9.4,3.1-2.7,4.2-1.3,12.8,3,15.4,1.6,1,3.2-1.6,1.5-2.6-3.2-1.9-3.8-9.2-1.1-11.5,3.7-3.1,13.9-1.9,18.5-1.6s8,1.5,8.7,6.4c.7,5.1-3.3,7-7.9,7.2-5.8.3-13,1.1-18.6-.7-1.8-.4-2.5,2.5-.7,3.1Z"/>
    <path class="cls-5" d="M24.3,145.7c0,5.8,0,11.6.2,17.3.1,3.1-.7,11.1,2.3,13.3,1,.7,2.4.1,3.3.6,1.5.8,2.2,4.7.6,6-.6.5-2.9.1-4,.9-.7.5-1.3,1.2-1.7,2-1,2.2-1.4,7.8-.2,9.9,1.4,2.4,4.7,2,7.1,1.8,1.9-.2,1.9-3.2,0-3-2.5.2-4.5.3-4.4-2.7s-.3-5.7,3.2-6c1.8-.1,2.7-.1,3.3-1.9s.9-6.2,0-8.2c-1.2-2.6-2.4-1.1-4.6-1.8-2.6-.9-1.9-11.4-2-14.1-.1-4.7-.2-9.4-.1-14.2,0-.8-.7-1.5-1.5-1.5-.9,0-1.5.7-1.5,1.6Z"/>
    <path class="cls-2" d="M73.7,27.1"/>
    <path class="cls-5" d="M40.4,159c.2,2.1-.2,4.5,1.9,5.6,2.4,1.4,7.7.3,10.4.2,4.6-.2,13.1,1.3,14-4.7,1-6.3-4.8-6.1-9.5-6.1s-15.1-1.4-16.7,4.8c-.2.8.2,1.6,1,1.9s1.6-.2,1.9-1.1c.8-2.9,9.8-2.5,12-2.5,1.7-.2,3.4-.2,5.1,0,2.3.5,4.9,2,2,3.8-2.3,1.4-8.1.9-10.7,1-1.8.1-3.5.1-5.3.1s-2,.2-2.5-.4c-.8-.8,0-2-.8-2.7-.8-.5-1.8-.5-2.6-.1,0,.1.2.2.5.3-.2,0-.5-.1-.7-.1Z"/>
    <path class="cls-5" d="M45.1,150.4"/>
  </g>
  <g>
    <path class="cls-4" d="M126.6,2.5c0,.3-.2.6-.2,1.1,0,.4-.1.9-.2,1.4,1.5.1,3,.3,4.5.5,1.6.2,3.1.5,4.6.8,1.5.3,2.9.7,4.3,1.1,1.4.4,2.6.9,3.7,1.4l-.2.6c-2.2-.3-4.4-.5-6.5-.6-2.2-.1-4.3-.2-6.5-.2s-1.4,0-2.1,0c-.7,0-1.4,0-2.1.1-.2,1.5-.3,3.1-.5,4.9-.2,1.8-.3,3.7-.4,5.7-.1,2-.2,4-.3,6.2,0,2.1-.2,4.2-.2,6.3,0,2.1,0,4.2,0,6.2,0,2,.1,4,.2,5.8.1,1.8.3,3.5.5,5.1.2,1.6.5,2.9.8,4.1,0,.2,0,.4.2.6,0,.2.1.4.1.6,0,.3,0,.6-.2.8-.2.2-.4.3-.7.3s-.9-.1-1.3-.4c-.4-.2-.8-.5-1.1-.7-.6-.4-1.1-1-1.4-1.9-.3-.9-.5-1.8-.7-2.8s-.2-2-.2-3c0-1,0-1.8,0-2.4,0-1.5,0-3.2.1-5,0-1.8.2-3.7.3-5.8.1-2,.3-4.1.5-6.2.2-2.1.4-4.2.7-6.3.3-2.1.6-4.1.9-6.2.3-2,.7-3.9,1.2-5.7-1.5,0-2.9.2-4.4.4-1.5.2-2.9.4-4.3.6-1.4.2-2.7.5-4,.8-1.3.3-2.4.6-3.5,1-.2.1-.5.2-.8.2-.6,0-.9-.3-.9-.9s.1-.8.3-1.2c.2-.4.4-.8.7-1.1.3-.5.8-.9,1.5-1.3.7-.4,1.4-.7,2.3-1,.9-.3,1.8-.5,2.7-.7,1-.2,1.9-.3,2.8-.5.9-.1,1.8-.2,2.6-.3.8,0,1.5,0,2,0s1.2,0,1.9,0c.7,0,1.3,0,2,.1.3-1,.6-1.9,1-2.7l.5.2Z"/>
    <path class="cls-4" d="M144.8,29.5c0,.2,0,.4-.2.6-.2.2-.3.3-.6.3s-.4,0-.6-.2c-.2-.1-.4-.2-.7-.4-.2-.1-.5-.3-.9-.4-.3-.1-.7-.2-1.1-.2-1,0-1.8.3-2.6.9-.8.6-1.4,1.4-1.9,2.2s-.9,1.8-1.2,2.9-.4,1.9-.4,2.7,0,1.1.1,1.7c0,.5.3,1,.5,1.5.2.4.6.8,1,1.1.4.3,1,.4,1.7.4s1.4-.1,2.1-.4c.7-.3,1.3-.6,1.8-1.1,0-.6.1-1.3.3-2,.2-.7.4-1.4.7-2.1.3-.7.6-1.3,1-2,.4-.6.8-1.2,1.2-1.6l.4.2c-.2.7-.4,1.4-.5,2.1,0,.7-.1,1.4-.1,2.1s0,1.4.2,2c.1.6.3,1.2.6,1.7.3.5.7.8,1.2,1.1.5.3,1.2.4,2,.4s1.9-.2,2.7-.7c.8-.5,1.6-1,2.2-1.7h.2c-.4.8-.8,1.5-1.4,2.1-.6.6-1.2,1.2-1.9,1.7-.7.5-1.5.9-2.2,1.2s-1.6.4-2.4.4-2-.3-2.7-.9c-.7-.6-1.2-1.4-1.4-2.4-.8.8-1.8,1.5-2.8,2.1-1,.6-2.1.8-3.2.8s-1.6-.2-2.2-.5c-.6-.3-1.2-.7-1.6-1.2-.4-.5-.8-1.1-1-1.8-.2-.7-.3-1.4-.3-2.2s.1-1.8.4-2.8c.3-.9.7-1.9,1.2-2.8.5-.9,1.1-1.8,1.8-2.6.7-.8,1.5-1.5,2.3-2.1.8-.6,1.7-1.1,2.6-1.5s1.8-.5,2.8-.5.5,0,.8,0c.3,0,.6.1.9.3s.6.3.8.5c.2.2.3.5.3.8Z"/>
    <path class="cls-4" d="M178.4,40.8c-.4.7-.8,1.4-1.2,2.1s-.9,1.2-1.4,1.7-1.1.9-1.8,1.2c-.7.3-1.4.4-2.3.4s-1.8-.2-2.6-.7c-.7-.5-1.3-1.1-1.8-1.9-.5-.8-.9-1.7-1.2-2.8-.3-1-.6-2.1-.8-3.2-.2-1.1-.3-2.1-.4-3.2,0-1-.2-2-.3-2.8-.4.3-.8.9-1.4,1.7-.5.8-1.1,1.8-1.6,3s-1.1,2.4-1.6,3.7c-.5,1.3-.9,2.6-1.2,3.9,0,.3-.2.6-.3.9-.1.3-.3.6-.5.8-.2.2-.4.5-.7.6-.3.2-.5.3-.9.3-.5,0-.9-.2-1.1-.5s-.4-.8-.5-1.2c-.6-2.5-1-4.9-1.2-7.2-.2-2.3-.3-4.6-.3-6.9s0-1,.3-1.4c.2-.4.4-.7.8-1,.3-.3.7-.5,1.1-.6.4-.1.9-.2,1.4-.2h.3c.1,0,.3,0,.4,0,.1,0,.2,0,.3.1,0,0,.1.1,0,.2-.5,2.6-.8,5.2-.7,7.9,0,2.7.2,5.3.4,7.8.2-1,.5-2.1,1-3.4.4-1.3.9-2.5,1.5-3.8.6-1.3,1.2-2.5,1.8-3.7.7-1.2,1.3-2.1,2-2.9.3-.4.7-.7,1-1,.3-.3.8-.4,1.3-.4s.5,0,.7.2c.2.1.4.3.5.4.1.2.2.4.3.6,0,.2.1.5.2.7,0,.6.2,1.3.3,2.2,0,.9.2,1.9.4,2.9.1,1,.3,2.1.6,3.1.2,1,.5,2,.8,2.8.3.8.7,1.5,1.2,2.1s1,.8,1.7.8,1.1-.1,1.6-.3c.5-.2,1-.5,1.4-.8.5-.3.9-.7,1.3-1.1.4-.4.8-.8,1.1-1.3h.2Z"/>
    <path class="cls-4" d="M192.8,54.2c0,1.6-.2,3.3-.6,4.9-.4,1.7-1,3.2-1.8,4.6-.8,1.4-1.9,2.6-3.1,3.6-1.3,1-2.8,1.6-4.6,1.8-.2,0-.3,0-.5,0-.2,0-.3,0-.5,0-1.1,0-2.1-.2-3.1-.7-1-.4-1.8-1-2.5-1.8-.7-.7-1.3-1.6-1.7-2.6-.4-1-.6-2-.6-3.1s.2-2.3.7-3.4c.5-1.1,1.1-2.1,1.9-3,.8-.9,1.7-1.7,2.7-2.4,1-.7,2-1.3,3.1-1.7l.2.4c-1.9,1-3.4,2.5-4.5,4.3-1.1,1.8-1.6,3.8-1.6,6s.1,1.8.4,2.6c.2.8.6,1.6,1.1,2.2.5.6,1.1,1.1,1.9,1.5.7.4,1.6.6,2.6.6s2.5-.4,3.4-1.1,1.6-1.6,2.2-2.7c.5-1.1.9-2.2,1.2-3.5.2-1.3.3-2.4.3-3.5s0-1.9-.2-2.8c-.1-.9-.2-1.8-.4-2.7-.1-.9-.3-1.8-.4-2.7-.1-.9-.2-1.8-.2-2.8s0-1.4,0-2.1c0-.7.1-1.4.3-2.2-.9,1-1.9,1.9-3,2.6-1.1.7-2.4,1.1-3.7,1.1s-1.5-.2-2.2-.5c-.6-.3-1.2-.7-1.6-1.2-.4-.5-.8-1.1-1-1.8-.2-.7-.3-1.4-.3-2.2s.1-1.8.4-2.8c.3-1,.7-1.9,1.2-2.8.5-.9,1.1-1.8,1.8-2.6.7-.8,1.5-1.5,2.3-2.1.8-.6,1.7-1.1,2.6-1.4.9-.3,1.8-.5,2.8-.5s1,0,1.4.2c.5.1.9.3,1.3.6.4.3.7.6,1,1,.2.4.4.9.4,1.4s0,.8-.3,1.1c-.2.3-.4.6-.7.8-.3.2-.6.5-.9.7-.3.2-.7.4-1,.5v-.4c0-.2.1-.4.2-.7,0-.3,0-.5,0-.7,0-.4,0-.7-.2-1.1-.1-.4-.3-.7-.5-1-.2-.3-.5-.6-.8-.8-.3-.2-.7-.3-1.1-.3-1,0-1.9.3-2.7.8-.8.5-1.5,1.2-2.1,2.1-.6.8-1,1.7-1.3,2.7-.3,1-.5,1.9-.5,2.8s0,1.2.2,1.8.3,1.1.6,1.6c.3.5.6.9,1.1,1.2.4.3,1,.5,1.7.5,1.1,0,2.1-.3,3-.8.9-.6,1.7-1.2,2.4-2,.3-.8.6-1.5,1.1-2.2.4-.7,1-1.3,1.7-1.8l.5.4c-.5.7-.8,1.6-.9,2.5-.1.9-.2,1.8-.2,2.7s0,2.1.2,3.2.3,2.1.5,3.2c.2,1.1.4,2.2.5,3.2.2,1.1.2,2.2.2,3.3Z"/>
    <path class="cls-4" d="M132.3,84.6c0,.2,0,.4,0,.5,0,.1-.1.3-.2.5-.3.8-.7,1.6-1.1,2.3-.4.8-.7,1.6-.9,2.4-.7,3-1.3,6-1.7,9-.4,3-.6,6.1-.7,9.2,1.3.3,2.4.7,3.5,1.4,1,.6,2,1.4,3,2.3,1.9-.8,3.6-1.8,5.1-3s2.9-2.6,3.9-4.1c1.1-1.5,1.9-3.3,2.5-5.2.6-1.9.9-3.9.9-6s-.2-2.4-.5-3.6c-.3-1.2-.8-2.4-1.5-3.6-.6-1.2-1.4-2.3-2.2-3.3-.9-1-1.8-1.9-2.9-2.7-1.1-.8-2.2-1.4-3.4-1.8-1.2-.4-2.4-.7-3.7-.7s-2.5.2-3.8.7c-1.3.5-2.5,1.1-3.6,1.9-1.1.8-2,1.8-2.7,3-.7,1.2-1,2.4-1,3.8s0,1,.2,1.4c.1.4.3.8.4,1.2.1.4.3.7.4,1,.1.3.2.6.2.9,0,.6-.2,1.1-.6,1.4-.4.4-.9.6-1.4.6s-.9-.1-1.2-.4c-.3-.3-.5-.6-.7-1-.2-.4-.3-.9-.3-1.3,0-.5,0-.9,0-1.2,0-1.7.4-3.3,1.3-4.7.8-1.4,1.9-2.7,3.2-3.8.8-.7,1.7-1.3,2.5-1.9s1.7-1,2.6-1.4c.9-.4,1.8-.7,2.8-.8,1-.2,2-.3,3.1-.3,1.6,0,3.1.2,4.6.6,1.5.4,2.9,1,4.2,1.7,1.3.7,2.5,1.6,3.6,2.7,1.1,1,2,2.2,2.8,3.5.8,1.3,1.4,2.6,1.8,4.1.4,1.5.6,3,.6,4.7,0,2.4-.4,4.6-1.3,6.6-.9,2-2,3.8-3.5,5.4-1.5,1.6-3.2,3-5.1,4.1-1.9,1.2-4,2.1-6.1,2.7.2.2.4.4.6.6.2.2.4.4.6.6,1.2,1.2,2.4,2.4,3.6,3.7,1.2,1.3,2.4,2.6,3.6,3.9,1.3,1.3,2.5,2.5,3.9,3.7s2.7,2.2,4.2,3.1c1.5.9,3.1,1.6,4.8,2.2,1.7.5,3.5.8,5.4.8s.7,0,1,0c.3,0,.6,0,1-.2v.6c-.7.5-1.6.8-2.6,1-1,.2-2,.3-3,.3-2.1,0-4-.2-5.7-.6-1.7-.4-3.3-1-4.8-1.8s-2.8-1.7-4.1-2.8c-1.3-1.1-2.5-2.3-3.6-3.6-1.2-1.3-2.3-2.7-3.4-4.1-1.1-1.5-2.2-3-3.4-4.5-.3-.3-.5-.7-.8-1-.2-.3-.5-.7-.7-1-.7.1-1.4.2-2.1.3-.7,0-1.4.1-2.1.1,0,2.4,0,4.8.2,7.2.1,2.4.3,4.7.4,7l-.6.2c-.8-2.1-1.4-4.4-1.9-6.9-.4-2.5-.7-5-1-7.6-.5,0-1-.2-1.5-.3-.5-.1-.9-.3-1.4-.6-.4-.2-.7-.6-1-.9-.2-.4-.4-.8-.4-1.3s.1-.9.4-1.2c.2-.3.6-.6.9-.9.4-.2.8-.4,1.3-.5.5-.1.9-.2,1.4-.3,0-.6,0-1.1,0-1.7v-1.6c0-.8,0-1.8,0-3,0-1.2,0-2.5.1-3.9,0-1.4.2-2.8.4-4.2.2-1.4.5-2.8.8-4s.8-2.4,1.3-3.3c.5-1,1.2-1.7,2-2.1.3-.2.6-.3,1-.5.4-.1.7-.2,1.1-.2.6,0,.9.3.9.8ZM121.7,111.3c0,.3,0,.5.3.7.2.2.4.4.7.6.3.2.6.3,1,.4.4.1.7.2,1.1.3,0-.7,0-1.3-.1-2,0-.7,0-1.3-.1-2-.3,0-.7,0-1,0-.3,0-.7.1-.9.3-.3.1-.5.3-.7.6-.2.2-.3.6-.3,1ZM127.6,113.6c.6,0,1.2,0,1.8-.1.6,0,1.2-.2,1.8-.3-.5-.7-1-1.3-1.6-1.9s-1.2-1-2-1.4c0,.6,0,1.2,0,1.8v1.8Z"/>
    <path class="cls-4" d="M175.8,114c-.3.7-.8,1.4-1.4,2-.6.6-1.2,1.2-1.9,1.7-.7.5-1.5.9-2.3,1.2-.8.3-1.6.4-2.4.4s-2-.3-2.7-1c-.7-.6-1.2-1.4-1.6-2.3-.8.8-1.6,1.4-2.6,1.9-.9.5-2,.8-3.1.8s-1.9-.2-2.7-.6c-.8-.4-1.4-.9-2-1.5-.5-.6-.9-1.4-1.2-2.2-.3-.8-.4-1.7-.4-2.7s.1-2.1.4-3.1c.3-1,.7-2,1.3-2.9.5-.9,1.2-1.8,1.9-2.6.7-.8,1.5-1.5,2.4-2.1l.4.3c-.8,1.2-1.5,2.5-2,3.9-.5,1.4-.7,2.9-.7,4.4s0,1.3.2,2c.1.7.4,1.4.7,2,.3.6.7,1.1,1.3,1.5.5.4,1.2.6,2,.6s1.3-.1,1.9-.3c.6-.2,1.2-.5,1.8-.9,0-.2,0-.5,0-.7,0-.2,0-.5,0-.7,0-1,.1-2,.4-3.1.3-1.1.6-2.2,1.1-3.3.5-1.1,1-2.2,1.6-3.2.6-1,1.2-1.9,1.8-2.6l.4.3c-.5,1.5-.8,3.1-1.1,4.7-.3,1.6-.4,3.2-.4,4.8s0,1.4.1,2.1c0,.7.3,1.3.6,1.8.3.5.7.9,1.2,1.3.5.3,1.2.5,2.1.5s1.8-.2,2.7-.7c.8-.5,1.6-1.1,2.2-1.8h.2Z"/>
    <path class="cls-4" d="M189.3,114c-.5.8-1,1.4-1.6,2.1s-1.3,1.2-2.1,1.6c-.7.5-1.5.8-2.4,1.1-.8.3-1.7.4-2.6.4s-2.1-.2-3-.6c-.9-.4-1.6-.9-2.2-1.6-.6-.7-1-1.4-1.3-2.4-.3-.9-.5-1.9-.5-3s.2-2.2.5-3.3c.3-1,.8-2,1.4-2.9.6-.9,1.3-1.7,2.1-2.5.8-.8,1.7-1.4,2.6-2l.4.3c-1,1.2-1.8,2.4-2.4,3.9-.6,1.4-.9,2.9-.9,4.5s.1,1.8.3,2.6c.2.8.5,1.6,1,2.2.4.6,1,1.1,1.7,1.5.7.4,1.5.6,2.5.6s2.3-.2,3.4-.7c1.1-.5,2-1.1,2.9-1.9h.2ZM181,94.3c0,.4,0,.8-.3,1.2-.2.4-.4.7-.7,1.1-.3.3-.6.6-1,.8-.4.2-.8.3-1.2.3s-.9-.2-1.2-.5c-.3-.3-.5-.8-.5-1.3s0-.8.3-1.2c.2-.4.4-.7.7-1s.6-.5,1-.7c.4-.2.7-.3,1.1-.3s.9.2,1.3.5c.3.3.5.7.5,1.2Z"/>
    <path class="cls-4" d="M130.1,148.9c0,.3-.2.6-.2,1.1,0,.4-.1.9-.2,1.4,1.5.1,3,.3,4.5.5,1.6.2,3.1.5,4.6.8,1.5.3,2.9.7,4.3,1.1,1.4.4,2.6.9,3.7,1.4l-.2.6c-2.2-.3-4.4-.5-6.5-.6-2.2-.1-4.3-.2-6.5-.2s-1.4,0-2.1,0c-.7,0-1.4,0-2.1.1-.2,1.5-.3,3.1-.5,4.9-.2,1.8-.3,3.7-.4,5.7s-.2,4-.3,6.2c0,2.1-.2,4.2-.2,6.3,0,2.1,0,4.2,0,6.2,0,2,.1,4,.2,5.8.1,1.8.3,3.5.5,5.1.2,1.6.5,2.9.8,4.1,0,.2,0,.4.2.6s.1.4.1.6c0,.3,0,.6-.2.8s-.4.3-.7.3-.9-.1-1.3-.4c-.4-.2-.8-.5-1.1-.7-.6-.4-1.1-1-1.4-1.9-.3-.9-.5-1.8-.7-2.8s-.2-2-.2-3,0-1.8,0-2.4c0-1.5,0-3.2.1-5,0-1.8.2-3.7.3-5.8s.3-4.1.5-6.2c.2-2.1.4-4.2.7-6.3.3-2.1.6-4.1.9-6.2.3-2,.7-3.9,1.2-5.7-1.5,0-2.9.2-4.4.4-1.5.2-2.9.4-4.3.6-1.4.2-2.7.5-4,.8s-2.4.6-3.5,1c-.2.1-.5.2-.8.2-.6,0-.9-.3-.9-.9s.1-.8.3-1.2c.2-.4.4-.8.7-1.1.3-.5.8-.9,1.5-1.3.7-.4,1.4-.7,2.3-1,.9-.3,1.8-.5,2.7-.7s1.9-.3,2.8-.5c.9-.1,1.8-.2,2.6-.3.8,0,1.5,0,2,0s1.2,0,1.9,0c.7,0,1.3,0,2,.1.3-1,.6-1.9,1-2.7l.5.2Z"/>
    <path class="cls-4" d="M150.7,187.2c-.5.8-1,1.4-1.6,2.1s-1.3,1.2-2.1,1.6c-.7.5-1.5.8-2.4,1.1s-1.7.4-2.6.4-2.1-.2-3-.6c-.9-.4-1.6-.9-2.2-1.6s-1-1.4-1.3-2.4c-.3-.9-.5-1.9-.5-3s.2-2.2.5-3.3c.3-1,.8-2,1.4-2.9s1.3-1.7,2.1-2.5c.8-.8,1.7-1.4,2.6-2l.4.3c-1,1.2-1.8,2.4-2.4,3.9-.6,1.4-.9,2.9-.9,4.5s.1,1.8.3,2.6c.2.8.5,1.6,1,2.2.4.6,1,1.1,1.7,1.5s1.5.6,2.5.6,2.3-.2,3.4-.7c1.1-.5,2-1.1,2.9-1.9h.2ZM142.3,167.5c0,.4,0,.8-.3,1.2-.2.4-.4.8-.7,1.1-.3.3-.6.6-1,.8s-.8.3-1.2.3-.9-.2-1.2-.5c-.3-.3-.5-.8-.5-1.3s0-.8.3-1.2c.2-.4.4-.7.7-1s.6-.5,1-.7c.4-.2.7-.3,1.1-.3s.9.2,1.3.5.5.7.5,1.2Z"/>
    <path class="cls-4" d="M174.9,187.2c-.4.7-.8,1.4-1.2,2.1s-.9,1.2-1.4,1.7-1.1.9-1.8,1.2c-.7.3-1.4.4-2.3.4s-1.8-.2-2.6-.7-1.3-1.1-1.8-1.9c-.5-.8-.9-1.7-1.2-2.8-.3-1-.6-2.1-.8-3.2-.2-1.1-.3-2.1-.4-3.2,0-1-.2-2-.3-2.8-.4.3-.8.9-1.4,1.7-.5.8-1.1,1.8-1.6,3-.6,1.1-1.1,2.4-1.6,3.7-.5,1.3-.9,2.6-1.2,3.9,0,.3-.2.6-.3.9-.1.3-.3.6-.5.8-.2.2-.4.5-.7.6-.3.2-.5.3-.9.3-.5,0-.9-.2-1.1-.5s-.4-.8-.5-1.2c-.6-2.5-1-4.9-1.2-7.2-.2-2.3-.3-4.6-.3-6.9s0-1,.3-1.4c.2-.4.4-.7.8-1,.3-.3.7-.5,1.1-.6.4-.1.9-.2,1.4-.2h.3c.1,0,.3,0,.4,0,.1,0,.2,0,.3.1,0,0,.1.1,0,.2-.5,2.6-.8,5.2-.7,7.9,0,2.7.2,5.3.4,7.8.2-1,.5-2.1,1-3.4.4-1.3.9-2.5,1.5-3.8.6-1.3,1.2-2.5,1.8-3.7.7-1.2,1.3-2.1,2-2.9.3-.4.7-.7,1-1,.3-.3.8-.4,1.3-.4s.5,0,.7.2c.2.1.4.3.5.4.1.2.2.4.3.6,0,.2.1.5.2.7,0,.6.2,1.3.3,2.2,0,.9.2,1.9.4,2.9.1,1,.3,2.1.6,3.1.2,1,.5,2,.8,2.8.3.8.7,1.5,1.2,2.1s1,.8,1.7.8,1.1-.1,1.6-.3c.5-.2,1-.5,1.4-.8.5-.3.9-.7,1.3-1.1s.8-.8,1.1-1.3h.2Z"/>
    <path class="cls-4" d="M189.3,200.6c0,1.6-.2,3.3-.6,4.9s-1,3.2-1.8,4.6-1.9,2.6-3.1,3.6c-1.3,1-2.8,1.6-4.6,1.8-.2,0-.3,0-.5,0s-.3,0-.5,0c-1.1,0-2.1-.2-3.1-.7-1-.4-1.8-1-2.5-1.8-.7-.7-1.3-1.6-1.7-2.6-.4-1-.6-2-.6-3.1s.2-2.3.7-3.4c.5-1.1,1.1-2.1,1.9-3,.8-.9,1.7-1.7,2.7-2.4,1-.7,2-1.3,3.1-1.7l.2.4c-1.9,1-3.4,2.5-4.5,4.3-1.1,1.8-1.6,3.8-1.6,6s.1,1.8.4,2.6.6,1.6,1.1,2.2c.5.6,1.1,1.1,1.9,1.5.7.4,1.6.6,2.6.6s2.5-.4,3.4-1.1,1.6-1.6,2.2-2.7c.5-1.1.9-2.2,1.2-3.5s.3-2.4.3-3.5,0-1.9-.2-2.8-.2-1.8-.4-2.7c-.1-.9-.3-1.8-.4-2.7-.1-.9-.2-1.8-.2-2.8s0-1.4,0-2.1c0-.7.1-1.4.3-2.2-.9,1-1.9,1.9-3,2.6-1.1.7-2.4,1.1-3.7,1.1s-1.5-.2-2.2-.5-1.2-.7-1.6-1.2c-.4-.5-.8-1.1-1-1.8-.2-.7-.3-1.4-.3-2.2s.1-1.8.4-2.8c.3-1,.7-1.9,1.2-2.8.5-.9,1.1-1.8,1.8-2.6.7-.8,1.5-1.5,2.3-2.1.8-.6,1.7-1.1,2.6-1.4.9-.3,1.8-.5,2.8-.5s1,0,1.4.2c.5.1.9.3,1.3.6s.7.6,1,1c.2.4.4.9.4,1.4s0,.8-.3,1.1c-.2.3-.4.6-.7.8s-.6.5-.9.7c-.3.2-.7.4-1,.5v-.4c0-.2.1-.4.2-.7,0-.3,0-.5,0-.7,0-.4,0-.7-.2-1.1s-.3-.7-.5-1c-.2-.3-.5-.6-.8-.8s-.7-.3-1.1-.3c-1,0-1.9.3-2.7.8s-1.5,1.2-2.1,2.1c-.6.8-1,1.7-1.3,2.7-.3,1-.5,1.9-.5,2.8s0,1.2.2,1.8.3,1.1.6,1.6c.3.5.6.9,1.1,1.2.4.3,1,.5,1.7.5,1.1,0,2.1-.3,3-.8.9-.6,1.7-1.2,2.4-2,.3-.8.6-1.5,1.1-2.2.4-.7,1-1.3,1.7-1.8l.5.4c-.5.7-.8,1.6-.9,2.5-.1.9-.2,1.8-.2,2.7s0,2.1.2,3.2c.2,1.1.3,2.1.5,3.2.2,1.1.4,2.2.5,3.2.2,1.1.2,2.2.2,3.3Z"/>
  </g>
</svg>