<?xml version="1.0" encoding="UTF-8"?>
<svg id="a" xmlns="http://www.w3.org/2000/svg" version="1.1" viewBox="0 0 196.7 227.5">
  <defs>
    <style>
      .cls-1 {
        letter-spacing: -.1em;
      }

      .cls-1, .cls-2 {
        fill: #966b20;
        font-family: Montez-Regular, Montez;
        font-size: 62px;
      }

      .cls-1, .cls-2, .cls-3 {
        isolation: isolate;
      }

      .cls-4 {
        fill: #a2344a;
      }

      .cls-4, .cls-5 {
        stroke-width: 0px;
      }

      .cls-5 {
        fill: #fff;
      }
    </style>
  </defs>
  <g>
    <path class="cls-4" d="M12.2,8.8h62.9c6.6,0,12,5.4,12,12v191.3c0,6.6-5.4,12-12,12H12.2c-6.6,0-12-5.4-12-12V20.8C.2,14.2,5.6,8.8,12.2,8.8Z"/>
    <path class="cls-5" d="M19.6,35.9c.5,3.3.6,6.6.5,9.9-.1,1.9,2.9,1.9,3,0,.1-3.6-.1-7.2-.6-10.7-.3-1.9-3.2-1.1-2.9.8Z"/>
    <path class="cls-5" d="M29.3,28.3c0,4.9.2,9.8.1,14.6-.2,5.8-2.7,8.5-5.9,13.1-4.7,6.8-2.6,15.1-3.2,22.8-.1,1.9,2.9,1.9,3,0,.3-4.4-.2-8.7.1-13.1.4-5.8,3.9-8.7,6.7-13.2,4.1-6.7,2.3-16.7,2.2-24.1,0-.8-.7-1.5-1.5-1.5s-1.5.6-1.5,1.4h0Z"/>
    <path class="cls-5" d="M29.1,61.8c.2,5.6.2,11.2.1,16.8,0,.8.7,1.5,1.5,1.5s1.5-.7,1.5-1.5v-16.8c0-1.9-3.1-1.9-3,0,0,0-.1,0-.1,0Z"/>
    <path class="cls-5" d="M41.8,37.3c7-.7,14-.8,21-.2,1.9,0,1.9-2.9,0-3-7-.6-14-.5-21,.2-1.9.2-1.9,3.2,0,3Z"/>
    <path class="cls-5" d="M41.7,52.2l20.5-.4c.8,0,1.5-.7,1.5-1.5s-.7-1.5-1.5-1.5l-20.5.4c-.8,0-1.5.7-1.5,1.5s.7,1.5,1.5,1.5Z"/>
    <path class="cls-5" d="M41.4,59c4.7-.3,9.3-.6,14-.7,1.7,0,5.1-.7,5.8.6s0,5.8,0,7.2c0,2.1-.2,4.2-.5,6.4,0,1.3,0,2.5-1.1,3.3s-2.6,0-3.3,0l-14.9.4c-1.9,0-1.9,3.1,0,3l11.5-.4c2.4,0,6.2.5,8.5-.6,3.3-1.7,2.6-8.4,2.7-11.5s1.7-10.1-2-11.5c-2.3-.9-6.8,0-9.2,0-3.8,0-7.7.3-11.5.6-1.9.2-1.9,3.2,0,3,0,0,0,.2,0,.2Z"/>
    <path class="cls-5" d="M41.8,66c6.3-.5,12.7-.7,19.1-.5.8,0,1.5-.7,1.5-1.5s-.7-1.5-1.5-1.5c-6.4-.2-12.8,0-19.1.5-1.9,0-1.9,3.1,0,3Z"/>
    <path class="cls-5" d="M41.7,72.3h19c.8,0,1.5-.7,1.5-1.5s-.7-1.5-1.5-1.5h-19c-.8,0-1.5.7-1.5,1.5s.7,1.5,1.5,1.5Z"/>
    <path class="cls-5" d="M50.9,43.5v13.3c0,.8.8,1.5,1.6,1.5s1.5-.7,1.5-1.5v-13.3c0-.8-.8-1.5-1.6-1.5s-1.5.7-1.5,1.5Z"/>
    <path class="cls-5" d="M20.7,176.5c3.5.2,8.5,1.1,11.7-.6,2.3-1.3,2.5-3.7,2.6-6.1,0-2.6.6-7.1-1.4-9.2-1.7-1.8-4.8-1.3-7.1-1-2.7.3-6,.7-7.3,3.5-1.6,3.3-.9,8.6-1.1,12.2-.4,9.6,0,19.5-.1,29.1,0,.8.7,1.5,1.5,1.5s1.5-.7,1.5-1.5c.1-10-.4-20.1.1-30.1.1-2.4-.3-5.6.4-7.9.9-3.2,6.5-5.7,9.4-3.6,2,1.5,1.3,9-.7,10.6-1.6,1.3-7.4.2-9.6.1-1.8-.1-1.8,2.9.1,3Z"/>
    <path class="cls-5" d="M39.9,160.4l27.7-.9c1.9-.1,1.9-3.1,0-3l-27.7.9c-1.9.1-1.9,3.1,0,3Z"/>
    <path class="cls-5" d="M52.4,155c.2.9.3,1.8,0,2.7-.2.8.2,1.6,1,1.9.8.2,1.5-.2,1.8-1h0c.2-1.4.2-2.9,0-4.3-.2-.8-1-1.2-1.8-1.1s-1.2,1-1,1.8h0Z"/>
    <path class="cls-5" d="M41.8,205.3c-.2-5.6-.3-11.2,0-16.7,0-2.4-.4-7.2,1.9-8.6,1.8-1,6.9-.4,8.8-.5,2.6-.2,5.2-.3,7.8-.2,4.8.4,5,3.3,5.1,7.4l.7,17.9c0,1.9,3.1,1.9,3,0l-.4-13.2c0-3.3.4-7.3-.6-10.5-1.7-5.6-9.1-4.7-13.6-4.5-3.8.2-9.2-.5-12.8.7-1.3.4-1.5.7-1.9,1.9-1.2,3.5-.8,8.6-.9,12.2-.2,4.6,0,9.3,0,14s3,1,2.9-.9v1s0,0,0,0Z"/>
    <path class="cls-5" d="M52.5,179.1v4.9c0,1.9,3,1.8,3-.1v-5.1c0-.8-.7-1.5-1.5-1.5h0c-.8.1-1.4,1-1.3,1.8h-.2Z"/>
    <path class="cls-5" d="M49.1,205.1v-11.1c0-1.4-.4-3.9.2-5.3.9-2.2,2.8-1.7,4.7-1.8,2.3-.1,3.9-.9,5.1,1.9.6,1.3.3,3.7.3,5.2.2,3.7.3,5.6.3,9.3s.7,3.3,1.5,3.3,1.5-.7,1.5-1.5c0-5.7.3-11.9-.7-17.5-.9-4.4-4.2-3.9-8-3.7-3.4.2-6.6-.5-7.5,3.3-1.3,5.5-.4,8.7-.4,14.3s.8,5,1.6,5,1.3-.5,1.4-1.2v-.2h0Z"/>
    <path class="cls-5" d="M52.9,192.7v12.3c0,.8.7,1.5,1.5,1.5s1.5-.7,1.5-1.5v-12.3c0-.8-.7-1.5-1.5-1.5s-1.5.7-1.5,1.5Z"/>
    <path class="cls-5" d="M29.6,95.1c11.8-.4,23.6-.5,35.4-.4.8,0,1.5-.7,1.5-1.5s-.7-1.5-1.5-1.5c-11.8,0-23.6,0-35.4.4-2,0-2,3.1,0,3Z"/>
    <path class="cls-5" d="M23.9,100.7c13.7-.7,27.4-.9,41.1-.7.8,0,1.5-.7,1.5-1.5s-.7-1.5-1.5-1.5c-13.7-.2-27.4,0-41.1.7-1.9,0-1.9,3.1,0,3Z"/>
    <path class="cls-5" d="M28.9,107.3c10.5-.6,21-.7,31.5-.3,1.9,0,1.9-2.9,0-3-10.5-.4-21-.2-31.5.3-1.9,0-1.9,3.1,0,3Z"/>
    <path class="cls-5" d="M40.5,105.6c-.8,2.2-.7,2.2-3.1,2.8-1.6.2-3.2.3-4.8.3l-11.3.8c-1.9,0-1.9,3.1,0,3,5.8-.4,12-.2,17.8-1.2,3.2-.5,3.3-2.1,4.4-4.8.6-1.9-2.3-2.6-3-.9Z"/>
    <path class="cls-5" d="M45.9,106.1c.2,3.1.6,5.2,3.9,5.5,5.8.4,11.6.2,17.4.3.8,0,1.5-.7,1.5-1.5s-.7-1.5-1.5-1.5l-9.8-.2h-4.5c-2.3,0-3.8,0-4-2.6-.2-1.9-3.2-1.9-3,0Z"/>
    <path class="cls-5" d="M22.4,92.4c1.5.3,2.9.9,4.2,1.7,1.2.9,1.2,2.4,1.2,3.8.1,1.9,3.1,1.9,3,0s-.3-4.1-1.8-5.6c-1.7-1.4-3.7-2.4-5.8-2.8-.8-.2-1.6.3-1.9,1.1s.2,1.6,1,1.9h0Z"/>
    <path class="cls-5" d="M22.7,140.7c.1-5.5,0-11.1.2-16.6.1-2.2-.3-2.5,1.9-3.7,1.9-1.1,3.2-1,5.3-1.1l9-.3c1.9,0,1.9-3.1,0-3-4.5.2-9.5-.2-14,.5-1.8,0-3.4,1.1-4.4,2.6-1.2,2.1-.8,5.3-.8,7.6l-.2,14c0,.8.7,1.5,1.5,1.5s1.5-.6,1.5-1.4h0Z"/>
    <path class="cls-5" d="M68.1,140.8c0-4.9,0-9.7.2-14.6,0-2.3.9-6.5-.4-8.4-1-1.6-2.4-1.4-4.2-1.5-4.8-.3-9.6-.3-14.4,0-1.9,0-1.9,3.1,0,3,3,0,6-.2,9,0,3.7,0,6.5-.6,7,3.6.8,5.8-.2,12.3-.3,18.1,0,.8.7,1.5,1.5,1.5s1.5-.7,1.6-1.5c0,0,0-.2,0-.2Z"/>
    <path class="cls-5" d="M43.2,43.5c4.1,1.5,9.3.9,13.5.5,2.6-.2,5.7-.3,6.9-3.1,1.3-3,.8-7.6,0-10.6s-2.3-4.2-5.2-4.8c-4.3-.7-8.6-.6-12.9.3-2.6.5-4.3,1.2-5.1,3.7-1.1,3.6-1.1,10.8,2.2,13.5,1.5,1.2,3.6-.9,2.1-2.1-2-1.6-1.9-5.7-1.8-8s.3-3.5,2.7-4.1c3-.7,6.2-.9,9.3-.6,2.8.1,5.4.3,6,3.5.4,2.2,1.2,6.6-.6,8.2-1.8,1.6-5.5,1.4-7.8,1.4s-5.9.3-8.5-.7c-1.8-.6-2.6,2.3-.8,2.9Z"/>
    <path class="cls-5" d="M29.2,131.1c9.7-.3,19.5-.5,29.2-.6.8,0,1.5-.7,1.5-1.5s-.7-1.5-1.5-1.5c-9.7.1-19.5.3-29.2.6-1.9.1-1.9,3.1,0,3Z"/>
    <path class="cls-5" d="M29.5,136.6c9.8-.4,19.6-.5,29.3-.3.8,0,1.5-.7,1.5-1.5s-.7-1.5-1.5-1.5c-9.8-.2-19.6-.1-29.4.3-1.9.1-1.9,3.1.1,3Z"/>
    <path class="cls-5" d="M22,105.1c-.3-1.2-.2-2.4.2-3.6.4-1,1.5-.9,2.4-.9s1.5-.7,1.5-1.5-.7-1.5-1.5-1.5c-1.9,0-3.8.3-4.9,2.1s-1,4.2-.7,6.2,3.3,1,3-.8Z"/>
    <path class="cls-5" d="M64.9,100c1.3,0,1.5.6,1.6,1.8s0,2.1.2,3.2c0,1.9,3.1,1.9,3,0s0-3.8-.6-5.5-2.3-2.4-4.2-2.5-1.9,3,0,3Z"/>
    <path class="cls-5" d="M31,140.7c5.1,1.7,11.3,1.1,16.5.9,3.5-.1,10,.6,12.6-2.6,2.2-2.7,1.4-7.9.5-11-1.1-3.8-3.4-5.3-7.3-5.9-5.4-.7-10.9-.7-16.3-.2-3.2.2-7.5,0-9.4,3.1-2.7,4.2-1.3,12.8,3,15.4,1.6,1,3.2-1.6,1.5-2.6-3.2-1.9-3.8-9.2-1.1-11.5,3.7-3.1,13.9-1.9,18.5-1.6s8,1.5,8.7,6.4c.7,5.1-3.3,7-7.9,7.2-5.8.3-13,1.1-18.6-.7-1.8-.4-2.5,2.5-.7,3.1h0Z"/>
    <path class="cls-5" d="M24.5,154.5c0,5.8,0,11.6.2,17.3.1,3.1-.7,11.1,2.3,13.3,1,.7,2.4.1,3.3.6,1.5.8,2.2,4.7.6,6-.6.5-2.9.1-4,.9-.8.5-1.3,1.2-1.7,2-1,2.2-1.4,7.8-.2,9.9,1.4,2.4,4.7,2,7.1,1.8,1.9-.2,1.9-3.2,0-3-2.5.2-4.5.3-4.4-2.7s-.3-5.7,3.2-6c1.8-.1,2.7-.1,3.3-1.9s.9-6.2,0-8.2c-1.2-2.6-2.4-1.1-4.6-1.8-2.6-.9-1.9-11.4-2-14.1-.1-4.7-.2-9.4-.1-14.2,0-.8-.7-1.5-1.5-1.5s-1.5.8-1.5,1.6h0Z"/>
    <path class="cls-5" d="M40.6,167.8c.2,2.1-.2,4.5,1.9,5.6,2.4,1.4,7.7.3,10.4.2,4.6-.2,13.1,1.3,14-4.7,1-6.3-4.8-6.1-9.5-6.1s-15.1-1.4-16.7,4.8c-.2.8.2,1.6,1,1.9s1.6-.3,1.8-1.1c.8-2.9,9.8-2.5,12-2.5,1.7-.2,3.4-.2,5.1,0,2.3.5,4.9,2,2,3.8-2.3,1.4-8.1.9-10.7,1-1.8.1-3.5.1-5.3.1s-2,.2-2.5-.4c-.8-.8,0-2-.8-2.7-.8-.5-1.8-.5-2.6-.1,0,.1.2.2.5.3-.2,0-.5-.1-.7-.1h0Z"/>
  </g>
  <g class="cls-3">
    <g class="cls-3">
      <g class="cls-3">
        <text class="cls-1" transform="translate(110.9 53)"><tspan x="0" y="0">T</tspan></text>
      </g>
    </g>
    <g class="cls-3">
      <g class="cls-3">
        <text class="cls-2" transform="translate(130.8 53)"><tspan x="0" y="0">ang</tspan></text>
      </g>
    </g>
    <g class="cls-3">
      <g class="cls-3">
        <text class="cls-2" transform="translate(118.8 127.4)"><tspan x="0" y="0">R</tspan></text>
      </g>
    </g>
    <g class="cls-3">
      <g class="cls-3">
        <text class="cls-2" transform="translate(152.4 127.4)"><tspan x="0" y="0">ui</tspan></text>
      </g>
    </g>
    <g class="cls-3">
      <g class="cls-3">
        <text class="cls-1" transform="translate(114.4 201.8)"><tspan x="0" y="0">T</tspan></text>
      </g>
    </g>
    <g class="cls-3">
      <g class="cls-3">
        <text class="cls-2" transform="translate(135.6 201.8)"><tspan x="0" y="0">ing</tspan></text>
      </g>
    </g>
  </g>
</svg>