<svg xmlns="http://www.w3.org/2000/svg" viewBox="0 0 89.92 218.32"><defs><style>.cls-1,.cls-3,.cls-4{fill:none;stroke-miterlimit:10;}.cls-1{stroke:#231f20;stroke-width:0.75px;}.cls-2{fill:#a13349;}.cls-3,.cls-4{stroke:#a13349;}.cls-4{stroke-width:3px;}</style></defs><title>trtss</title><g id="Layer_2" data-name="Layer 2"><g id="Layer_1-2" data-name="Layer 1"><g id="Layer_2-2" data-name="Layer 2"><g id="Layer_1-2-2" data-name="Layer 1-2"><path class="cls-1" d="M45.26,86.65"/><path class="cls-2" d="M20.9,28.56a53.06,53.06,0,0,1,.49,9.86c-.08,1.93,2.92,1.93,3,0a57.22,57.22,0,0,0-.6-10.66C23.51,25.86,20.62,26.67,20.9,28.56Z"/><path class="cls-2" d="M30.61,21c0,4.86.25,9.77.08,14.63-.21,5.83-2.68,8.52-5.86,13.1-4.69,6.75-2.62,15.09-3.19,22.75-.14,1.93,2.86,1.92,3,0,.33-4.36-.25-8.73.08-13.08.44-5.8,3.91-8.65,6.69-13.25,4.07-6.74,2.27-16.66,2.21-24.15a1.5,1.5,0,0,0-3,0Z"/><path class="cls-2" d="M30.38,54.54q.24,8.38.13,16.77a1.5,1.5,0,0,0,3,0q.1-8.39-.13-16.77C33.33,52.61,30.33,52.61,30.38,54.54Z"/><path class="cls-2" d="M43.14,30a117.55,117.55,0,0,1,21-.2c1.92.15,1.91-2.85,0-3a117.55,117.55,0,0,0-21,.2C41.24,27.19,41.22,30.19,43.14,30Z"/><path class="cls-2" d="M43,44.91l20.48-.41a1.5,1.5,0,0,0,0-3L43,41.91A1.5,1.5,0,0,0,43,44.91Z"/><path class="cls-2" d="M42.69,51.7c4.66-.32,9.33-.56,14-.67,1.68,0,5.08-.66,5.83.57s0,5.8,0,7.19c-.09,2.13-.23,4.25-.46,6.37-.14,1.32.07,2.53-1.13,3.27-.6.37-2.57.08-3.3.1L42.73,69c-1.93.06-1.93,3.06,0,3l11.55-.36c2.41-.07,6.22.51,8.45-.59,3.34-1.66,2.57-8.43,2.72-11.45s1.74-10.08-2-11.54c-2.33-.92-6.83,0-9.24.06-3.85.13-7.69.34-11.53.6-1.92.13-1.93,3.13,0,3Z"/><path class="cls-2" d="M43.13,58.66a182.57,182.57,0,0,1,19.12-.55,1.5,1.5,0,0,0,0-3,182.57,182.57,0,0,0-19.12.55C41.22,55.82,41.2,58.82,43.13,58.66Z"/><path class="cls-2" d="M43,65H62a1.5,1.5,0,0,0,0-3H43a1.5,1.5,0,0,0,0,3Z"/><path class="cls-2" d="M52.15,36.2l.13,13.26a1.5,1.5,0,0,0,3,0L55.15,36.2a1.5,1.5,0,1,0-3,0Z"/><path class="cls-2" d="M22,169.22c3.47.25,8.49,1.07,11.7-.65,2.35-1.26,2.46-3.74,2.56-6.13.11-2.57.58-7.07-1.44-9.16-1.74-1.8-4.82-1.3-7.07-1-2.71.33-6,.71-7.31,3.46-1.61,3.33-.89,8.63-1.06,12.23-.43,9.63,0,19.46-.09,29.12a1.5,1.5,0,0,0,3,0c.06-10-.35-20.14.13-30.1.11-2.36-.27-5.6.4-7.85.94-3.16,6.48-5.72,9.44-3.57,2,1.47,1.27,9-.7,10.59-1.62,1.28-7.43.24-9.56.08-1.93-.14-1.92,2.86,0,3Z"/><path class="cls-2" d="M41.22,153.11l27.66-.89c1.93-.06,1.93-3.06,0-3l-27.66.89C39.29,150.17,39.29,153.17,41.22,153.11Z"/><path class="cls-2" d="M53.65,147.67a7.26,7.26,0,0,1,.12,2.74,1.55,1.55,0,0,0,1,1.85,1.51,1.51,0,0,0,1.85-1,11.21,11.21,0,0,0-.12-4.34c-.43-1.88-3.32-1.09-2.89.8Z"/><path class="cls-2" d="M43.09,198c-.24-5.58-.26-11.16,0-16.74.13-2.37-.41-7.24,1.9-8.55,1.75-1,6.88-.38,8.82-.49a58.38,58.38,0,0,1,7.82-.16c4.77.38,5,3.34,5.11,7.4l.68,17.86c.07,1.92,3.07,1.93,3,0L70,184.12c-.13-3.32.37-7.33-.64-10.54-1.74-5.59-9.07-4.72-13.64-4.5-3.79.18-9.23-.48-12.81.73-1.29.43-1.49.69-1.93,1.95-1.23,3.49-.8,8.57-.93,12.25-.18,4.65-.13,9.3.08,14,.08,1.92,3.08,1.93,3,0Z"/><path class="cls-2" d="M53.83,171.81l-.05,4.92c0,1.93,3,1.84,3-.09v-5.1a1.49,1.49,0,1,0-2.93.27Z"/><path class="cls-2" d="M50.38,197.84V186.78c0-1.42-.43-3.95.15-5.26.94-2.17,2.82-1.66,4.7-1.78,2.28-.14,3.94-.94,5.14,1.89.56,1.33.26,3.72.33,5.17.19,3.7.26,7.41.26,11.12a1.5,1.5,0,0,0,3,0c0-5.66.35-11.9-.73-17.48-.86-4.45-4.17-3.93-8-3.7-3.4.2-6.6-.54-7.53,3.27-1.33,5.47-.31,12.24-.3,17.82a1.5,1.5,0,1,0,3,0Z"/><path class="cls-2" d="M54.16,185.4v12.34a1.5,1.5,0,0,0,3,0V185.4a1.5,1.5,0,0,0-3,0Z"/><path class="cls-2" d="M30.87,87.8q17.7-.57,35.42-.42a1.5,1.5,0,1,0,0-3q-17.71-.15-35.42.42C28.94,84.86,28.94,87.86,30.87,87.8Z"/><path class="cls-2" d="M25.2,93.37q20.53-1,41.08-.67a1.5,1.5,0,0,0,0-3q-20.55-.3-41.08.67C23.28,90.46,23.27,93.46,25.2,93.37Z"/><path class="cls-2" d="M30.25,100q15.75-.9,31.52-.35c1.93.07,1.93-2.93,0-3Q46,96.1,30.25,97C28.33,97.11,28.32,100.11,30.25,100Z"/><path class="cls-2" d="M41.82,98.33c-.85,2.15-.73,2.22-3.09,2.75a32.85,32.85,0,0,1-4.84.32l-11.3.75c-1.92.13-1.93,3.13,0,3,5.82-.38,12-.23,17.75-1.17,3.23-.53,3.27-2.06,4.37-4.85C45.42,97.33,42.52,96.56,41.82,98.33Z"/><path class="cls-2" d="M47.2,98.85c.25,3.12.64,5.24,3.94,5.47,5.76.41,11.64.17,17.42.26a1.5,1.5,0,0,0,0-3l-9.84-.15-4.54-.07c-2.33,0-3.75.24-4-2.52-.15-1.91-3.15-1.93-3,0Z"/><path class="cls-2" d="M23.71,85.06a10.92,10.92,0,0,1,4.17,1.72c1.17.89,1.19,2.42,1.25,3.77.08,1.92,3.08,1.93,3,0s-.31-4.14-1.83-5.64a12.34,12.34,0,0,0-5.79-2.75c-1.88-.44-2.68,2.46-.8,2.89Z"/><path class="cls-2" d="M24,133.41c.06-5.54,0-11.09.19-16.62.07-2.19-.27-2.51,1.85-3.7,1.87-1.06,3.23-1,5.29-1.08l9-.31c1.93-.07,1.93-3.07,0-3-4.55.16-9.47-.2-14,.53-1.84.3-3.44.92-4.4,2.63-1.17,2.08-.76,5.33-.79,7.57l-.16,14a1.5,1.5,0,0,0,3,0Z"/><path class="cls-2" d="M69.43,133.5l.22-14.55c0-2.27.89-6.51-.41-8.45-1-1.55-2.45-1.4-4.21-1.52a135.89,135.89,0,0,0-14.37-.08c-1.92.08-1.93,3.08,0,3,3-.12,6-.18,9-.13,3.67.07,6.48-.55,7,3.61.79,5.75-.18,12.32-.27,18.13a1.5,1.5,0,0,0,3,0Z"/><path class="cls-2" d="M44.49,36.25c4.06,1.54,9.32.93,13.55.53,2.58-.25,5.69-.35,6.89-3.06,1.33-3,.85-7.56,0-10.64-.77-2.86-2.34-4.22-5.25-4.78a36.89,36.89,0,0,0-12.92.33c-2.56.45-4.3,1.19-5.11,3.74C40.51,26,40.58,33.18,43.83,35.86c1.48,1.22,3.61-.89,2.12-2.12-2-1.63-1.92-5.67-1.79-8s.32-3.46,2.67-4.11A31.89,31.89,0,0,1,56.14,21c2.83.11,5.43.34,6,3.55.42,2.2,1.18,6.62-.64,8.22S56.09,34,53.81,34c-2.73.08-5.94.29-8.52-.68C43.48,32.67,42.7,35.57,44.49,36.25Z"/><path class="cls-2" d="M30.55,123.82q14.59-.46,29.19-.58a1.5,1.5,0,0,0,0-3q-14.6.12-29.19.58C28.62,120.88,28.62,123.88,30.55,123.82Z"/><path class="cls-2" d="M30.75,129.27q14.67-.65,29.35-.34a1.5,1.5,0,0,0,0-3q-14.68-.32-29.35.34C28.83,126.36,28.82,129.36,30.75,129.27Z"/><path class="cls-2" d="M23.29,97.76a6.64,6.64,0,0,1,.22-3.55c.44-1,1.46-.9,2.41-.9a1.5,1.5,0,0,0,0-3c-1.88,0-3.81.31-4.85,2.07s-1,4.19-.67,6.18S23.6,99.65,23.29,97.76Z"/><path class="cls-2" d="M66.25,92.66c1.35,0,1.48.64,1.55,1.84s.11,2.11.16,3.17c.1,1.92,3.1,1.93,3,0-.09-1.76.09-3.85-.55-5.52-.71-1.85-2.31-2.44-4.17-2.48a1.5,1.5,0,0,0,0,3Z"/><path class="cls-2" d="M32.28,133.42c5.07,1.67,11.29,1.1,16.54.95,3.54-.1,10,.62,12.6-2.55,2.24-2.72,1.42-7.93.54-11-1.09-3.8-3.42-5.3-7.31-5.89a73,73,0,0,0-16.33-.2c-3.2.25-7.46.06-9.4,3.08-2.7,4.19-1.34,12.78,3,15.45,1.65,1,3.16-1.58,1.51-2.59-3.16-1.95-3.84-9.24-1.13-11.49,3.67-3.05,13.87-1.87,18.53-1.57s8,1.47,8.68,6.4c.67,5.13-3.3,7-7.86,7.24-5.8.29-13,1.09-18.58-.73C31.24,129.92,30.45,132.82,32.28,133.42Z"/><path class="cls-2" d="M25.84,147.23c0,5.78,0,11.56.23,17.33.12,3.09-.68,11.08,2.27,13.31,1,.74,2.36.07,3.3.57,1.54.82,2.17,4.7.6,6-.64.52-2.92.14-4,.88a4.52,4.52,0,0,0-1.7,2c-1,2.23-1.39,7.79-.2,9.92,1.35,2.41,4.69,2,7.07,1.79,1.91-.17,1.93-3.17,0-3-2.54.23-4.47.26-4.42-2.67s-.28-5.71,3.23-6c1.77-.14,2.66-.1,3.32-1.91s.91-6.25,0-8.21c-1.24-2.56-2.37-1.06-4.58-1.78-2.61-.85-1.9-11.37-2-14.13-.13-4.72-.16-9.45-.13-14.17a1.5,1.5,0,0,0-3,0Z"/><path class="cls-3" d="M75.2,28.65"/><path class="cls-2" d="M41.91,160.48c.18,2.09-.16,4.46,1.87,5.62,2.44,1.39,7.73.31,10.44.2,4.57-.19,13.06,1.3,14-4.71,1-6.31-4.76-6.15-9.53-6.15S43.6,154.05,42,160.21c-.47,1.87,2.42,2.67,2.89.8.75-2.95,9.78-2.49,12-2.54a22,22,0,0,1,5.06,0c2.29.53,4.89,2,2,3.84-2.28,1.44-8.08.89-10.71,1q-2.66.09-5.31.09c-1.09,0-2,.18-2.52-.38-.77-.79,0-2-.83-2.75a2.34,2.34,0,0,0-2.58-.06c0,.1.21.22.45.31Z"/><rect class="cls-4" x="1.5" y="1.5" width="86.92" height="215.32" rx="12" ry="12"/></g></g></g></g></svg>