<!DOCTYPE svg PUBLIC "-//W3C//DTD SVG 1.1//EN" "http://www.w3.org/Graphics/SVG/1.1/DTD/svg11.dtd">
<!-- Uploaded to: SVG Repo, www.svgrepo.com, Transformed by: SVG Repo Mixer Tools -->
<svg width="800px" height="800px" viewBox="0 0 24 24" fill="none" xmlns="http://www.w3.org/2000/svg">
<g id="SVGRepo_bgCarrier" stroke-width="0"/>
<g id="SVGRepo_tracerCarrier" stroke-linecap="round" stroke-linejoin="round"/>
<g id="SVGRepo_iconCarrier"> <path d="M19.2803 4.28033C19.5732 3.98744 19.5732 3.51256 19.2803 3.21967C18.9874 2.92678 18.5126 2.92678 18.2197 3.21967L15 6.43934V5.25C15 4.98265 14.8577 4.73551 14.6264 4.60132C14.3952 4.46713 14.11 4.46617 13.8779 4.59882L8.80083 7.5H5.25C4.83579 7.5 4.5 7.83579 4.5 8.25V15.75C4.5 16.0716 4.70243 16.3459 4.98682 16.4525L3.21967 18.2197C2.92678 18.5126 2.92678 18.9874 3.21967 19.2803C3.51256 19.5732 3.98744 19.5732 4.28033 19.2803L19.2803 4.28033Z" fill="#ffffff"/> <path d="M13.8779 19.4012L9.04336 16.6386L15 10.682V18.75C15 19.0174 14.8577 19.2645 14.6264 19.3987C14.3952 19.5329 14.11 19.5338 13.8779 19.4012Z" fill="#ffffff"/> </g>
</svg>