<!DOCTYPE svg PUBLIC "-//W3C//DTD SVG 1.1//EN" "http://www.w3.org/Graphics/SVG/1.1/DTD/svg11.dtd">
<!-- Uploaded to: SVG Repo, www.svgrepo.com, Transformed by: SVG Repo Mixer Tools -->
<svg width="800px" height="800px" viewBox="0 0 24 24" fill="none" xmlns="http://www.w3.org/2000/svg">
<g id="SVGRepo_bgCarrier" stroke-width="0"/>
<g id="SVGRepo_tracerCarrier" stroke-linecap="round" stroke-linejoin="round"/>
<g id="SVGRepo_iconCarrier"> <path d="M15 5.25C15 4.98265 14.8577 4.73551 14.6264 4.60132C14.3952 4.46713 14.11 4.46617 13.8779 4.59882L8.80083 7.5H5.25C4.83579 7.5 4.5 7.83579 4.5 8.25V15.75C4.5 16.1642 4.83579 16.5 5.25 16.5H8.80083L13.8779 19.4012C14.11 19.5338 14.3952 19.5329 14.6264 19.3987C14.8577 19.2645 15 19.0174 15 18.75V5.25Z" fill="#ffffff"/> <path d="M19.3471 7.04619C19.0965 6.71641 18.626 6.65224 18.2962 6.90288C17.9664 7.15351 17.9022 7.62403 18.1529 7.95381C19.4299 9.63407 19.5 11.4589 19.5 12C19.5 14.1568 18.4925 15.5702 18.1397 16.0641C17.8989 16.4011 17.977 16.8695 18.3141 17.1103C18.6511 17.3511 19.1195 17.273 19.3603 16.9359L19.3616 16.9342C19.7601 16.3762 21 14.6404 21 12C21 11.3411 20.9201 9.11593 19.3471 7.04619Z" fill="#ffffff"/> <path d="M17.1166 9.32309C16.8809 8.98253 16.4137 8.89758 16.0731 9.13336C15.7325 9.36913 15.6476 9.83634 15.8834 10.1769C16.4429 10.9852 16.5 11.7932 16.5 12C16.5 12.4899 16.3929 12.8987 16.2666 13.2034C16.2033 13.3559 16.1364 13.4795 16.0784 13.5711C16.0495 13.6168 16.0238 13.6529 16.0034 13.6793C15.9933 13.6924 15.985 13.7025 15.9788 13.7096C15.9731 13.7162 15.97 13.7193 15.9697 13.7197C15.9696 13.7197 15.9696 13.7197 15.9697 13.7197C15.6768 14.0126 15.6768 14.4874 15.9697 14.7803C16.2626 15.0732 16.7374 15.0732 17.0303 14.7803C17.3957 14.415 18 13.3993 18 12C18 11.6068 17.9071 10.4648 17.1166 9.32309Z" fill="#ffffff"/> </g>
</svg>